<?xml version="1.0" encoding="UTF-8"?>
<svg id="Capa_2" data-name="Capa 2" xmlns="http://www.w3.org/2000/svg" viewBox="0 0 800 523.63">
  <defs>
    <style>
      .cls-1 {
        fill: #00d3de;
      }
    </style>
  </defs>
  <g id="Capa_1-2" data-name="Capa 1">
    <g>
      <g>
        <path class="cls-1" d="M88.94,132.18c-25.57-8.28-33.85-10.8-33.85-22.33,0-8.28,6.48-17.28,18.37-17.28,5.04,0,15.84,1.44,19.09,17.28h46.81c-1.8-39.61-35.29-61.22-65.18-61.22-32.05,0-66.98,23.05-66.98,61.94,0,32.77,21.97,49.69,44.65,57.26,34.21,11.52,45.01,15.12,45.01,29.89,0,8.28-6.12,20.17-21.61,20.17-19.81,0-24.13-16.56-26.29-25.57H0c1.08,12.24,2.88,28.09,15.12,43.21,15.49,19.45,39.97,26.29,59.78,26.29,34.21,0,69.86-24.85,69.86-69.86,0-40.33-30.97-52.22-55.82-59.78Z"/>
        <path class="cls-1" d="M328.41,80.69h-.72c-1.44-2.88-25.57-32.05-66.26-32.05-55.46,0-100.11,44.29-100.11,105.51,0,66.62,45.73,107.67,97.23,107.67,25.21,0,54.73-13.32,69.86-31.33v31.33h43.93V55.48h-43.93v25.21Zm-59.78,137.2c-34.21,0-59.42-27.73-59.42-61.58,0-29.89,20.17-63.74,59.42-63.74,28.45,0,58.34,20.89,58.34,62.3,0,37.09-25.21,63.02-58.34,63.02Z"/>
        <path class="cls-1" d="M507.73,48.64c-30.25,0-46.81,17.08-54.74,24.88v-17.83h-44.29v206.12h47.89v-98.05c0-17.45,0-39,8.64-51.62,8.64-13.74,24.13-18.2,32.77-18.2,40.33,0,40.33,49.02,40.33,66.11v101.76h47.89v-111.42c0-15.97,0-50.51-18.37-73.17-16.57-20.8-42.85-28.6-60.14-28.6Z"/>
        <rect class="cls-1" x="665.76" y="218.03" width="53.49" height="43.79"/>
        <polygon class="cls-1" points="719.25 96.9 719.25 48.45 665.76 48.45 665.76 0 622 0 622 218.03 665.76 218.03 665.76 96.9 719.25 96.9"/>
        <rect class="cls-1" x="756.24" y="26.75" width="43.76" height="43.76"/>
        <rect class="cls-1" x="756.24" y="97.71" width="43.76" height="164.11"/>
      </g>
      <path class="cls-1" d="M416.24,488.08s0,.08,0,.12v-.22s0,.07,0,.1Z"/>
      <path class="cls-1" d="M160.33,310.45v213.18H0v-213.18H160.33Zm-39.81,47.37H39.81v118.43H120.53v-118.43Z"/>
      <path class="cls-1" d="M605.96,310.45v213.18h-160.33v-213.18h160.33Zm-39.81,47.37h-80.72v118.43h80.72v-118.43Z"/>
      <path class="cls-1" d="M221.86,488.05l90.93-69.46c25.14-19.2,28.24-31.62,28.24-41.22,0-22.02-19.98-31.34-37.2-31.34s-28.93,9.32-34.1,16.94c-4.48,7.06-4.82,15.25-4.82,23.43h-45.47c-.34-2.82-.34-4.52-.34-6.78,0-33.04,30.66-69.18,83.7-69.18s84.04,34.45,84.04,68.61c0,21.46-9.99,42.64-49.26,71.15l-51.67,37.84h100.92v35.58H221.86v-35.58Z"/>
      <path class="cls-1" d="M664.74,336.51h41.64v72.48h.44l46.04-72.48h43.62l-53.97,80.32,57.5,80.75h-48.69l-44.5-69.65h-.44v69.65h-41.64v-161.07Z"/>
    </g>
  </g>
</svg>